HIERARCHY
ROOT Hips
{
	OFFSET 54.512901 -50.276115 85.963692
	CHANNELS 6 Xposition Yposition Zposition Xrotation Yrotation Zrotation
	JOINT spine
	{
		OFFSET 0.000000 -0.367607 6.392601
		CHANNELS 3 Xrotation Yrotation Zrotation
		JOINT spine1
		{
			OFFSET 0.000000 0.000000 9.176109
			CHANNELS 3 Xrotation Yrotation Zrotation
			JOINT spine2
			{
				OFFSET 0.000000 -0.000004 8.792381
				CHANNELS 3 Xrotation Yrotation Zrotation
				JOINT Neck
				{
					OFFSET 0.000000 -1.076244 22.573700
					CHANNELS 3 Xrotation Yrotation Zrotation
					JOINT Head
					{
						OFFSET 0.000000 0.000000 6.820114
						CHANNELS 3 Xrotation Yrotation Zrotation
						End Site
						{
							OFFSET 0.000000 5.444267 16.508514
						}
					}
				}
				JOINT RightShoulder
				{
					OFFSET -3.702209 0.515507 9.495087
					CHANNELS 3 Xrotation Yrotation Zrotation
					JOINT RightArm
					{
						OFFSET 0.000000 -0.000004 12.453690
						CHANNELS 3 Xrotation Yrotation Zrotation
						JOINT RightArmRoll
						{
							OFFSET 0.000000 0.000000 6.286865
							CHANNELS 3 Xrotation Yrotation Zrotation
							JOINT RightForeArm
							{
								OFFSET 0.000000 -0.000004 18.311401
								CHANNELS 3 Xrotation Yrotation Zrotation
								JOINT RightForeArmRoll
								{
									OFFSET 0.000000 0.000000 7.054825
									CHANNELS 3 Xrotation Yrotation Zrotation
									JOINT RightHand
									{
										OFFSET 0.000000 -0.000004 14.157501
										CHANNELS 3 Xrotation Yrotation Zrotation
										End Site
										{
											OFFSET 0.000000 0.000000 0.100006
										}
									}
								}
							}
						}
					}
				}
				JOINT LeftShoulder
				{
					OFFSET 3.702209 0.515507 9.495087
					CHANNELS 3 Xrotation Yrotation Zrotation
					JOINT LeftArm
					{
						OFFSET 0.000000 -0.000004 12.453690
						CHANNELS 3 Xrotation Yrotation Zrotation
						JOINT LeftArmRoll
						{
							OFFSET 0.000000 0.000000 6.286865
							CHANNELS 3 Xrotation Yrotation Zrotation
							JOINT LeftForeArm
							{
								OFFSET 0.000000 -0.000004 18.311401
								CHANNELS 3 Xrotation Yrotation Zrotation
								JOINT LeftForeArmRoll
								{
									OFFSET 0.000000 0.000000 7.054825
									CHANNELS 3 Xrotation Yrotation Zrotation
									JOINT LeftHand
									{
										OFFSET 0.000000 -0.000004 14.157501
										CHANNELS 3 Xrotation Yrotation Zrotation
										End Site
										{
											OFFSET 0.000000 0.000000 0.100006
										}
									}
								}
							}
						}
					}
				}
			}
		}
	}
	JOINT RightUpLeg
	{
		OFFSET -5.666161 0.871609 -1.039032
		CHANNELS 3 Xrotation Yrotation Zrotation
		JOINT RightUpLegRoll
		{
			OFFSET 0.000000 0.000000 16.600502
			CHANNELS 3 Xrotation Yrotation Zrotation
			JOINT RightLeg
			{
				OFFSET 0.000000 0.000004 -20.557198
				CHANNELS 3 Xrotation Yrotation Zrotation
				JOINT RightLegRoll
				{
					OFFSET 0.000000 -0.000004 20.624397
					CHANNELS 3 Xrotation Yrotation Zrotation
					JOINT RightFoot
					{
						OFFSET 0.000000 -0.000004 17.166405
						CHANNELS 3 Xrotation Yrotation Zrotation
						JOINT RightToeBase
						{
							OFFSET 0.000000 -0.000004 14.350197
							CHANNELS 3 Xrotation Yrotation Zrotation
							End Site
							{
								OFFSET 0.006081 0.801060 6.949707
							}
						}
					}
				}
			}
		}
	}
	JOINT LeftUpLeg
	{
		OFFSET 5.666161 0.871609 -1.039032
		CHANNELS 3 Xrotation Yrotation Zrotation
		JOINT LeftUpLegRoll
		{
			OFFSET 0.000000 0.000000 16.600601
			CHANNELS 3 Xrotation Yrotation Zrotation
			JOINT LeftLeg
			{
				OFFSET 0.000000 -0.000004 20.557098
				CHANNELS 3 Xrotation Yrotation Zrotation
				JOINT LeftLegRoll
				{
					OFFSET 0.000000 -0.000004 20.815086
					CHANNELS 3 Xrotation Yrotation Zrotation
					JOINT LeftFoot
					{
						OFFSET 0.000000 -0.000004 16.975708
						CHANNELS 3 Xrotation Yrotation Zrotation
						JOINT LeftToeBase
						{
							OFFSET 0.000000 0.000000 14.350204
							CHANNELS 3 Xrotation Yrotation Zrotation
							End Site
							{
								OFFSET -0.027260 0.801056 6.949707
							}
						}
					}
				}
			}
		}
	}
}
MOTION
Frames: 13
Frame Time: 0.041667
52.863499 -32.580017 75.990196 23.119430 -0.887061 2.554619 -0.072689 0.573081 -0.162928 3.859220 1.152491 -0.330757 5.504435 1.148451 -0.344538 -9.444403 -2.743589 -0.531683 -0.350680 0.701334 0.218454 5.927366 -55.247587 7.566198 127.256833 -50.413111 115.094247 0.000000 0.000001 -0.000003 30.357414 -15.582919 4.007366 0.000014 0.000003 -2.999987 -5.000075 -7.998683 0.000031 -0.580177 50.972056 -0.341800 131.620669 47.921369 -118.058140 -0.000000 -0.000006 0.000008 27.955823 13.484241 -2.306180 -0.000009 -0.000002 2.999999 -4.999754 7.998765 0.000042 -63.140079 -176.155442 -2.042439 -179.999991 0.000005 -0.673001 129.429926 -2.133604 -2.825359 0.000001 0.000000 0.826307 74.583118 6.690283 2.285579 25.604434 -7.348966 0.224515 -62.061100 178.284302 3.892191 -0.000021 -0.000005 -0.760532 -52.878683 0.307071 1.286797 -0.000000 -0.000002 -1.396200 77.588422 -6.612220 -2.316282 25.804164 7.355613 -0.508035 
52.886600 -32.694706 76.042389 23.007926 -0.888978 2.561423 -0.090396 0.571707 -0.156520 3.823730 1.149975 -0.317753 5.468942 1.146090 -0.331506 -9.397999 -2.758904 -0.542228 -0.286471 0.709476 0.210118 5.866593 -55.307033 7.483848 127.220224 -50.441008 115.192452 0.000000 0.000001 -0.000001 30.018651 -15.632391 3.975261 0.000011 0.000004 -2.999989 -5.000079 -7.998682 0.000034 -0.520662 51.001839 -0.411071 131.620805 47.955277 -118.202202 -0.000000 -0.000006 0.000007 27.711706 13.459403 -2.279486 -0.000005 -0.000002 3.000000 -4.999752 7.998766 0.000045 -62.856018 -176.156958 -2.067616 -179.999991 0.000005 -0.673998 129.549591 -2.098817 -2.802352 0.000001 0.000000 0.825401 74.606730 6.680249 2.313514 25.614744 -7.348938 0.240237 -61.762573 178.295477 3.897188 -0.000021 -0.000004 -0.762042 -52.719549 0.303981 1.278653 -0.000002 -0.000002 -1.393980 77.603694 -6.611033 -2.318660 25.809009 7.355614 -0.515128 
52.895699 -32.800117 76.138695 22.892118 -0.889909 2.569657 -0.107200 0.570226 -0.150952 3.790067 1.147076 -0.306437 5.435287 1.143318 -0.320155 -9.348436 -2.773142 -0.551436 -0.225886 0.716287 0.202830 5.810917 -55.366398 7.407619 127.182098 -50.471642 115.288402 -0.000000 0.000001 0.000000 29.685242 -15.681049 3.943151 0.000012 0.000006 -2.999991 -5.000075 -7.998683 0.000029 -0.471297 51.032148 -0.467792 131.620464 47.992338 -118.337945 -0.000000 -0.000006 0.000005 27.475541 13.439479 -2.254928 -0.000008 0.000000 2.999998 -4.999754 7.998764 0.000042 -62.565346 -176.157026 -2.088709 -179.999991 0.000005 -0.674995 129.672548 -2.069723 -2.782301 0.000001 0.000000 0.824338 74.632787 6.671623 2.337599 25.623731 -7.348916 0.254024 -61.459955 178.307020 3.902133 -0.000020 -0.000004 -0.763622 -52.561116 0.299905 1.270329 -0.000001 -0.000002 -1.391710 77.619158 -6.609959 -2.320939 25.813862 7.355613 -0.522261 
52.906601 -32.905617 76.227097 22.771301 -0.889694 2.579518 -0.122930 0.568613 -0.146352 3.758550 1.143705 -0.297062 5.403761 1.140071 -0.310744 -9.295335 -2.786255 -0.559146 -0.169735 0.721681 0.196743 5.761542 -55.425844 7.338935 127.142114 -50.504772 115.382030 0.000000 0.000001 -0.000004 29.357113 -15.729019 3.911020 0.000008 0.000004 -2.999987 -5.000074 -7.998682 0.000034 -0.433443 51.062996 -0.510287 131.620286 48.031751 -118.465396 0.000000 -0.000005 0.000007 27.247136 13.425463 -2.232776 -0.000006 0.000001 3.000001 -4.999754 7.998765 0.000042 -62.266716 -176.156453 -2.103314 -179.999991 0.000005 -0.676006 129.799235 -2.047013 -2.765944 0.000001 0.000000 0.823094 74.662116 6.664516 2.356897 25.631303 -7.348888 0.265540 -61.152842 178.318918 3.907037 -0.000023 -0.000005 -0.765283 -52.403581 0.294708 1.261809 -0.000002 -0.000001 -1.389390 77.634976 -6.608927 -2.323204 25.818808 7.355607 -0.529468 
52.912102 -33.022816 76.274101 22.645378 -0.888419 2.591099 -0.137637 0.566901 -0.142670 3.729089 1.139882 -0.289535 5.374300 1.136333 -0.303172 -9.239837 -2.797780 -0.565336 -0.116001 0.725080 0.191824 5.717579 -55.485506 7.276714 127.100135 -50.541573 115.472066 -0.000000 0.000000 -0.000002 29.035465 -15.775896 3.879211 0.000010 0.000003 -2.999992 -5.000075 -7.998683 0.000032 -0.406357 51.094596 -0.539430 131.619494 48.075376 -118.584638 -0.000000 -0.000006 0.000008 27.029610 13.415254 -2.212404 -0.000006 0.000000 3.000000 -4.999755 7.998765 0.000041 -61.960676 -176.154349 -2.113769 -179.999991 0.000005 -0.678001 129.929350 -2.030079 -2.750465 0.000001 0.000000 0.821691 74.694259 6.658881 2.372033 25.637562 -7.348858 0.274997 -60.841010 178.331649 3.911894 -0.000023 -0.000005 -0.767036 -52.247033 0.288195 1.252998 -0.000002 -0.000002 -1.387020 77.651184 -6.607954 -2.325350 25.823753 7.355611 -0.536728 
52.923698 -33.134003 76.378586 22.515442 -0.886350 2.604258 -0.151540 0.565143 -0.139726 3.701245 1.135677 -0.283482 5.346465 1.132194 -0.297072 -9.183182 -2.807439 -0.570179 -0.062255 0.726157 0.187881 5.677128 -55.545793 7.218571 127.057911 -50.581960 115.559083 0.000000 0.000001 -0.000003 28.720997 -15.821513 3.848097 0.000012 0.000005 -2.999989 -5.000080 -7.998685 0.000033 -0.387909 51.127354 -0.557768 131.619262 48.123839 -118.698880 -0.000000 -0.000006 0.000005 26.825945 13.406322 -2.193193 -0.000008 0.000000 2.999999 -4.999754 7.998765 0.000040 -61.648468 -176.151835 -2.119599 -179.999991 0.000005 -0.678998 130.062375 -2.017645 -2.737331 0.000001 0.000000 0.820176 74.728335 6.654421 2.383514 25.642718 -7.348845 0.282949 -60.525373 178.344818 3.918171 -0.000024 -0.000005 -0.768871 -52.090882 0.280380 1.243852 -0.000002 -0.000002 -1.384590 77.667529 -6.607028 -2.327496 25.828806 7.355607 -0.544061 
52.931400 -33.256210 76.398697 22.381907 -0.883594 2.618846 -0.164738 0.563346 -0.137444 3.674814 1.131140 -0.278757 5.320030 1.127712 -0.292295 -9.125183 -2.815450 -0.573807 -0.008725 0.725215 0.184825 5.639701 -55.606735 7.163955 127.014444 -50.626510 115.641987 0.000000 0.000001 -0.000001 28.413396 -15.865681 3.817522 0.000013 0.000005 -2.999987 -5.000075 -7.998682 0.000034 -0.377455 51.161091 -0.566132 131.619193 48.176965 -118.807889 -0.000000 -0.000005 0.000005 26.635122 13.398750 -2.175099 -0.000008 0.000000 3.000000 -4.999752 7.998768 0.000044 -61.330926 -176.148038 -2.123007 -179.999991 0.000005 -0.681006 130.198131 -2.009090 -2.726743 0.000001 0.000000 0.818558 74.763975 6.651030 2.391949 25.647060 -7.348834 0.289574 -60.206294 178.359435 3.923761 -0.000021 -0.000005 -0.770775 -51.934914 0.271437 1.234441 -0.000000 -0.000002 -1.382110 77.683799 -6.606176 -2.329457 25.833760 7.355609 -0.551402 
52.940399 -33.371120 76.507881 22.245363 -0.880261 2.634672 -0.177339 0.561514 -0.135751 3.649595 1.126332 -0.275209 5.294796 1.122949 -0.288694 -9.065684 -2.822040 -0.576355 0.044384 0.722553 0.182569 5.604832 -55.668142 7.112322 126.971509 -50.673962 115.723308 0.000000 0.000001 -0.000001 28.112470 -15.908632 3.787569 0.000012 0.000006 -2.999992 -5.000078 -7.998683 0.000037 -0.374328 51.195608 -0.565351 131.619303 48.234755 -118.911462 -0.000000 -0.000006 0.000007 26.456014 13.392895 -2.158197 -0.000008 0.000000 2.999999 -4.999754 7.998765 0.000041 -61.008459 -176.144473 -2.121777 -180.000005 0.000005 -0.682003 130.336552 -2.003805 -2.715946 0.000000 0.000000 0.816847 74.800878 6.648569 2.397537 25.650596 -7.348827 0.295025 -59.884353 178.374051 3.930869 -0.000025 -0.000005 -0.772736 -51.778954 0.261542 1.224831 -0.000001 -0.000002 -1.379570 77.699993 -6.605376 -2.331425 25.838812 7.355615 -0.558772 
52.946701 -33.479912 76.579590 22.106122 -0.876458 2.651573 -0.189446 0.559655 -0.134568 3.625364 1.121312 -0.272691 5.270576 1.117954 -0.286121 -9.004472 -2.827418 -0.577949 0.096839 0.718475 0.181023 5.572029 -55.730030 7.063107 126.927086 -50.725435 115.800639 0.000000 0.000001 -0.000002 27.817711 -15.950387 3.758114 0.000012 0.000006 -2.999990 -5.000076 -7.998683 0.000029 -0.377871 51.230893 -0.556260 131.620054 48.296339 -119.010650 -0.000000 -0.000005 0.000006 26.287504 13.388843 -2.142412 -0.000006 -0.000002 2.999998 -4.999755 7.998763 0.000042 -60.682037 -176.139814 -2.118980 -179.999991 0.000005 -0.683998 130.477322 -2.002442 -2.707658 -0.000000 0.000000 0.815052 74.838711 6.646932 2.400682 25.653426 -7.348817 0.299454 -59.559810 178.389187 3.938290 -0.000020 -0.000005 -0.774741 -51.622785 0.250870 1.215087 -0.000002 -0.000002 -1.376970 77.715982 -6.604617 -2.333308 25.843865 7.355610 -0.566123 
52.955700 -33.608307 76.665993 21.964973 -0.872287 2.669369 -0.201159 0.557775 -0.133824 3.601922 1.116131 -0.271054 5.247127 1.112788 -0.284425 -8.941377 -2.831821 -0.578726 0.148437 0.713278 0.180097 5.540806 -55.792253 7.015749 126.883072 -50.779745 115.876345 -0.000000 0.000001 -0.000001 27.528915 -15.990991 3.729162 0.000011 0.000004 -2.999990 -5.000076 -7.998681 0.000035 -0.387423 51.266867 -0.539691 131.620614 48.362408 -119.104033 -0.000000 -0.000005 0.000009 26.128757 13.386722 -2.127792 -0.000005 0.000000 2.999999 -4.999753 7.998765 0.000040 -60.352235 -176.135061 -2.113289 -180.000005 0.000005 -0.684995 130.620469 -2.003724 -2.700324 -0.000000 0.000000 0.813182 74.877076 6.646021 2.401795 25.655746 -7.348820 0.303040 -59.233074 178.404855 3.945641 -0.000021 -0.000005 -0.776776 -51.466227 0.239598 1.205271 -0.000000 -0.000002 -1.374300 77.731548 -6.603920 -2.335223 25.848912 7.355607 -0.573458 
52.967899 -33.721214 76.733002 21.822234 -0.867851 2.687899 -0.212583 0.555878 -0.133443 3.579072 1.110840 -0.270148 5.224277 1.107511 -0.283459 -8.876222 -2.835467 -0.578811 0.198948 0.707266 0.179699 5.510716 -55.854815 6.969711 126.839236 -50.836729 115.950589 0.000000 0.000001 -0.000002 27.245672 -16.030439 3.700582 0.000012 0.000006 -2.999990 -5.000079 -7.998683 0.000031 -0.402305 51.303310 -0.516483 131.622199 48.431365 -119.193850 -0.000000 -0.000006 0.000006 25.978548 13.386705 -2.114269 -0.000008 0.000000 2.999999 -4.999754 7.998764 0.000041 -60.019727 -176.129760 -2.105979 -179.999991 0.000005 -0.687003 130.765652 -2.007014 -2.693208 0.000001 0.000000 0.811246 74.915803 6.645631 2.401156 25.657558 -7.348818 0.305944 -58.904876 178.420592 3.953485 -0.000019 -0.000005 -0.778830 -51.308965 0.227904 1.195444 -0.000000 -0.000001 -1.371570 77.746793 -6.603246 -2.337060 25.853868 7.355612 -0.580739 
52.977200 -33.825012 76.812103 21.678380 -0.863250 2.706975 -0.223820 0.553971 -0.133350 3.556602 1.105517 -0.269825 5.201804 1.102183 -0.283076 -8.808808 -2.838575 -0.578333 0.248167 0.700737 0.179734 5.481222 -55.917536 6.924385 126.796451 -50.895728 116.024533 -0.000000 0.000001 -0.000003 26.967687 -16.068877 3.672393 0.000012 0.000004 -2.999991 -5.000077 -7.998681 0.000032 -0.421880 51.340237 -0.487469 131.624767 48.503216 -119.279733 -0.000000 -0.000005 0.000006 25.835868 13.389110 -2.101932 -0.000006 -0.000001 3.000000 -4.999753 7.998763 0.000043 -59.685383 -176.124050 -2.097513 -180.000005 0.000005 -0.688997 130.912774 -2.011671 -2.685544 0.000000 0.000000 0.809254 74.954414 6.645708 2.399283 25.659076 -7.348825 0.308325 -58.575265 178.436916 3.960650 -0.000019 -0.000005 -0.780889 -51.151007 0.215962 1.185667 -0.000002 -0.000002 -1.368760 77.761499 -6.602626 -2.338736 25.858811 7.355614 -0.587960 
52.975899 -33.938622 76.894096 21.534038 -0.858579 2.726435 -0.234969 0.552059 -0.133472 3.534291 1.100194 -0.269934 5.179490 1.096854 -0.283126 -8.738973 -2.841372 -0.577422 0.295866 0.693992 0.180111 5.451902 -55.980545 6.879264 126.753585 -50.957279 116.097001 0.000000 0.000002 -0.000001 26.694534 -16.106218 3.644434 0.000012 0.000003 -2.999989 -5.000075 -7.998683 0.000031 -0.445454 51.377561 -0.453496 131.626420 48.579167 -119.359414 -0.000000 -0.000006 0.000006 25.699695 13.394069 -2.090755 -0.000006 -0.000000 2.999999 -4.999755 7.998766 0.000040 -59.349658 -176.118463 -2.087401 -180.000005 0.000005 -0.689994 131.061713 -2.018350 -2.680062 -0.000000 0.000000 0.807215 74.992649 6.646154 2.396284 25.660394 -7.348837 0.310366 -58.245053 178.452257 3.969366 -0.000020 -0.000005 -0.782940 -50.992051 0.203953 1.175996 -0.000002 -0.000001 -1.365870 77.775637 -6.601990 -2.340442 25.863662 7.355613 -0.595093 
